HIERARCHY
ROOT Hips
{
 OFFSET 0.000000 0.000000 0.000000
 CHANNELS 6 Xposition Yposition Zposition Yrotation Xrotation Zrotation
 JOINT Chest
 {
  OFFSET 0.000000 9.585900 0.002600
  CHANNELS 3 Yrotation Xrotation Zrotation
  JOINT Chest2
  {
   OFFSET 0.000000 9.601200 -0.005300
   CHANNELS 3 Yrotation Xrotation Zrotation
   JOINT Chest3
   {
    OFFSET 0.000000 9.561800 0.000000
    CHANNELS 3 Yrotation Xrotation Zrotation
    JOINT Chest4
    {
     OFFSET 0.000000 9.552100 0.000000
     CHANNELS 3 Yrotation Xrotation Zrotation
     JOINT Neck
     {
      OFFSET 0.000000 14.453000 0.000000
      CHANNELS 3 Yrotation Xrotation Zrotation
      JOINT Head
      {
       OFFSET 0.000000 8.936500 -0.011300
       CHANNELS 3 Yrotation Xrotation Zrotation
       End Site
       {
        OFFSET 0.000000 17.073600 -0.006000
       }
      }
     }
     JOINT RightCollar
     {
      OFFSET -2.921100 9.558500 0.000000
      CHANNELS 3 Yrotation Xrotation Zrotation
      JOINT RightShoulder
      {
       OFFSET -13.519700 0.000000 0.000000
       CHANNELS 3 Yrotation Xrotation Zrotation
       JOINT RightElbow
       {
        OFFSET 0.000000 -29.696600 0.000000
        CHANNELS 3 Yrotation Xrotation Zrotation
        JOINT RightWrist
        {
         OFFSET 0.000000 -24.004700 0.000000
         CHANNELS 3 Yrotation Xrotation Zrotation
         End Site
         {
          OFFSET 0.000000 -17.728500 0.000000
         }
        }
       }
      }
     }
     JOINT LeftCollar
     {
      OFFSET 2.921100 9.558500 0.000000
      CHANNELS 3 Yrotation Xrotation Zrotation
      JOINT LeftShoulder
      {
       OFFSET 13.519700 0.000000 0.000000
       CHANNELS 3 Yrotation Xrotation Zrotation
       JOINT LeftElbow
       {
        OFFSET 0.000000 -29.696600 0.000000
        CHANNELS 3 Yrotation Xrotation Zrotation
        JOINT LeftWrist
        {
         OFFSET 0.000000 -24.004700 0.000000
         CHANNELS 3 Yrotation Xrotation Zrotation
         End Site
         {
          OFFSET 0.000000 -17.728500 0.000000
         }
        }
       }
      }
     }
    }
   }
  }
 }
 JOINT RightHip
 {
  OFFSET -7.771700 -0.012900 -0.001300
  CHANNELS 3 Yrotation Xrotation Zrotation
  JOINT RightKnee
  {
   OFFSET 0.000000 -40.869800 0.001200
   CHANNELS 3 Yrotation Xrotation Zrotation
   JOINT RightAnkle
   {
    OFFSET 0.000000 -39.717900 0.002100
    CHANNELS 3 Yrotation Xrotation Zrotation
    JOINT RightToe
    {
     OFFSET 0.000000 -4.965400 11.033500
     CHANNELS 3 Yrotation Xrotation Zrotation
     End Site
     {
      OFFSET 0.000000 -1.423100 5.872300
     }
    }
   }
  }
 }
 JOINT LeftHip
 {
  OFFSET 7.771700 -0.012900 -0.001300
  CHANNELS 3 Yrotation Xrotation Zrotation
  JOINT LeftKnee
  {
   OFFSET 0.000000 -40.869800 0.001200
   CHANNELS 3 Yrotation Xrotation Zrotation
   JOINT LeftAnkle
   {
    OFFSET 0.000000 -39.717900 0.002100
    CHANNELS 3 Yrotation Xrotation Zrotation
    JOINT LeftToe
    {
     OFFSET 0.000000 -4.965400 11.033500
     CHANNELS 3 Yrotation Xrotation Zrotation
     End Site
     {
      OFFSET 0.000000 -1.423100 5.872300
     }
    }
   }
  }
 }
}
MOTION
Frames: 15
Frame Time: 0.008333
-30.689727 57.967968 94.026197 175.076378 -50.491273 8.101756 -7.889895 24.296979 0.872135 -1.249829 3.978648 0.282812 -1.987822 6.332240 0.422353 -6.363477 20.196893 0.559475 4.635944 19.884894 -6.884259 10.462467 2.009178 -13.911135 18.809071 1.771289 -11.694030 40.681895 -41.975866 -26.724496 -144.418802 -45.406767 173.596511 -6.620356 0.117360 -54.825038 0.913348 -7.486362 -7.301141 -16.466640 -36.288364 -2.717933 135.776034 -54.497439 -162.270172 -17.213501 -4.318881 34.951563 11.861869 -23.448761 -7.003718 3.200853 78.649569 6.880977 4.199318 4.641148 1.526659 -0.038406 -8.613759 0.360104 -13.689199 -26.277515 -8.135473 37.904915 73.002702 28.494473 -23.123141 1.885667 -13.806971 -0.330862 -0.483773 -0.137841
-30.685818 57.965530 94.026761 175.097587 -50.480230 8.051793 -7.883588 24.297999 0.904817 -1.251329 3.975821 0.285332 -1.990479 6.339849 0.417749 -6.365278 20.192017 0.562376 4.614172 19.893916 -6.888955 10.433045 2.014131 -13.911378 18.814555 1.778380 -11.698289 40.668597 -41.977770 -26.710341 -144.435224 -45.401224 173.615456 -6.619005 0.117004 -54.824969 0.923047 -7.490624 -7.305372 -16.484159 -36.291951 -2.717708 135.762961 -54.511794 -162.258639 -17.224316 -4.323015 34.953027 11.845344 -23.466508 -6.962464 3.180155 78.642427 6.862694 4.192672 4.647107 1.530337 -0.034868 -8.614338 0.359555 -13.715100 -26.283690 -8.093843 37.911355 73.004940 28.497873 -23.108351 1.911469 -13.788540 -0.335984 -0.506692 -0.152984
-30.686866 57.965073 94.026115 175.101175 -50.479950 8.044637 -7.883267 24.300089 0.908058 -1.251067 3.980655 0.282376 -1.991848 6.339940 0.417006 -6.369782 20.191436 0.559465 4.612179 19.893188 -6.887229 10.418893 2.017514 -13.909739 18.821754 1.784858 -11.699654 40.650789 -41.975678 -26.693207 -144.449926 -45.392071 173.638365 -6.618319 0.124442 -54.838529 0.927434 -7.477941 -7.312387 -16.501990 -36.305471 -2.705075 135.729994 -54.519452 -162.232074 -17.246152 -4.327761 34.952935 11.846054 -23.468684 -6.954978 3.173083 78.643291 6.854830 4.191456 4.650392 1.532497 -0.029570 -8.617926 0.360570 -13.715182 -26.285144 -8.088443 37.903725 73.017052 28.483019 -23.088691 1.904763 -13.770665 -0.378934 -0.498767 -0.158179
-30.688737 57.964049 94.025973 175.111487 -50.475184 8.035571 -7.887320 24.303370 0.906291 -1.249915 3.978429 0.280776 -1.993703 6.340054 0.416255 -6.375864 20.190676 0.556098 4.608642 19.894268 -6.886644 10.412186 2.018884 -13.907583 18.826024 1.790321 -11.692909 40.646538 -41.973982 -26.688153 -144.457391 -45.386534 173.651038 -6.614734 0.127980 -54.845099 0.932905 -7.475274 -7.313743 -16.519350 -36.309340 -2.695402 135.744511 -54.525346 -162.241415 -17.237135 -4.327219 34.960469 11.845022 -23.475195 -6.953660 3.182701 78.644647 6.864771 4.186276 4.651450 1.531717 -0.028580 -8.619645 0.364126 -13.716922 -26.292451 -8.088623 37.907216 73.020231 28.486293 -23.080729 1.902894 -13.770615 -0.392669 -0.496328 -0.155172
-30.691728 57.963338 94.025684 175.123041 -50.471584 8.030888 -7.890814 24.304135 0.899407 -1.252801 3.977946 0.278582 -1.994561 6.337663 0.419950 -6.379399 20.190289 0.554322 4.596907 19.899769 -6.892496 10.415805 2.015325 -13.905130 18.822198 1.811412 -11.691254 40.637708 -41.967550 -26.688685 -144.464168 -45.367572 173.666609 -6.609361 0.156477 -54.859329 0.931376 -7.470686 -7.320954 -16.524849 -36.311207 -2.686481 135.738438 -54.522819 -162.232461 -17.239297 -4.323254 34.956171 11.856111 -23.478432 -6.959167 3.169047 78.647045 6.857155 4.176992 4.650830 1.538604 -0.034236 -8.621005 0.365281 -13.717798 -26.299236 -8.096026 37.919640 73.018641 28.496944 -23.075770 1.903718 -13.768134 -0.381747 -0.497500 -0.156207
-30.694740 57.962849 94.025256 175.140279 -50.469030 8.020675 -7.899080 24.304432 0.890801 -1.255162 3.978983 0.277945 -1.994880 6.334442 0.423633 -6.383090 20.189630 0.552314 4.595042 19.903738 -6.894293 10.420474 2.010525 -13.902899 18.821332 1.821555 -11.691708 40.632245 -41.965462 -26.684650 -144.464625 -45.372720 173.662748 -6.604638 0.154599 -54.845753 0.930598 -7.466139 -7.326405 -16.530128 -36.303034 -2.704425 135.768072 -54.531567 -162.266840 -17.239344 -4.322767 34.953135 11.850837 -23.481388 -6.962027 3.183241 78.648211 6.869813 4.169898 4.650128 1.543168 -0.034968 -8.622240 0.364758 -13.725541 -26.304799 -8.100836 37.943267 73.014338 28.516880 -23.080556 1.901847 -13.765224 -0.375901 -0.496456 -0.158349
-30.696698 57.962717 94.024477 175.149955 -50.467853 8.008940 -7.901611 24.308204 0.888988 -1.255919 3.976882 0.281323 -1.999887 6.344078 0.410385 -6.380492 20.186472 0.559084 4.604465 19.897905 -6.887443 10.414486 2.019923 -13.905184 18.819205 1.825406 -11.693917 40.628357 -41.967720 -26.680268 -144.469601 -45.362601 173.675005 -6.603805 0.154889 -54.844428 0.936213 -7.471432 -7.320985 -16.525458 -36.299065 -2.717841 135.779533 -54.529988 -162.283274 -17.228459 -4.312109 34.960699 11.845198 -23.483755 -6.956315 3.189818 78.647745 6.875570 4.165353 4.652249 1.545231 -0.032413 -8.624653 0.364367 -13.732699 -26.305872 -8.099422 37.970182 73.009762 28.544461 -23.093032 1.894338 -13.763734 -0.371959 -0.494054 -0.161364
-30.698769 57.962035 94.024199 175.170670 -50.461594 7.988085 -7.909406 24.307083 0.888392 -1.256921 3.973949 0.284956 -2.003270 6.346142 0.407348 -6.396454 20.189647 0.543430 4.619016 19.895606 -6.880713 10.417619 2.032993 -13.908283 18.830608 1.821716 -11.688225 40.622974 -41.965331 -26.676613 -144.470151 -45.351728 173.682860 -6.606111 0.166962 -54.847645 0.945144 -7.473568 -7.314398 -16.518570 -36.299250 -2.717698 135.771867 -54.526951 -162.278825 -17.232185 -4.308682 34.960309 11.832430 -23.493206 -6.953558 3.195681 78.647120 6.880560 4.172271 4.660908 1.547003 -0.034537 -8.632836 0.363947 -13.745417 -26.313960 -8.097702 37.989114 73.007618 28.566057 -23.092558 1.886167 -13.763090 -0.366427 -0.491826 -0.161792
-30.702589 57.962559 94.023141 175.173120 -50.460082 7.991318 -7.915404 24.311887 0.873636 -1.259033 3.977782 0.279851 -2.000917 6.342103 0.412551 -6.398661 20.189881 0.541109 4.617376 19.899634 -6.883436 10.428790 2.023798 -13.905413 18.828274 1.819737 -11.688323 40.623080 -41.960341 -26.676882 -144.470397 -45.359506 173.682417 -6.609914 0.179789 -54.847049 0.926703 -7.461991 -7.326389 -16.510208 -36.307285 -2.704209 135.747419 -54.519034 -162.251304 -17.250892 -4.309823 34.947690 11.836611 -23.494318 -6.957441 3.198093 78.650037 6.878543 4.171639 4.662745 1.553601 -0.034605 -8.636795 0.363582 -13.729475 -26.317161 -8.118390 38.021306 73.002500 28.607947 -23.085049 1.889391 -13.745613 -0.374174 -0.495620 -0.172826
-30.703541 57.962706 94.022114 175.174292 -50.456071 7.977399 -7.911323 24.312173 0.883964 -1.258266 3.983124 0.273567 -2.001784 6.342915 0.412156 -6.401098 20.190572 0.539399 4.624887 19.895253 -6.878268 10.428289 2.034494 -13.908841 18.831438 1.811604 -11.684189 40.624710 -41.957016 -26.677757 -144.471333 -45.362754 173.683252 -6.610955 0.185923 -54.847612 0.928307 -7.465078 -7.321331 -16.503832 -36.304532 -2.724021 135.752316 -54.524385 -162.260287 -17.253598 -4.316437 34.945112 11.831856 -23.499731 -6.942434 3.169507 78.647129 6.850806 4.173710 4.665457 1.552974 -0.038319 -8.637793 0.364903 -13.725888 -26.318347 -8.112488 38.093617 72.999449 28.681149 -23.075478 1.878364 -13.726249 -0.376378 -0.490803 -0.180344
-30.704840 57.962360 94.021560 175.196773 -50.448317 7.948183 -7.915499 24.319062 0.878999 -1.259353 3.974379 0.286327 -2.003257 6.344711 0.409302 -6.404642 20.191162 0.537766 4.628227 19.898394 -6.878475 10.431229 2.034412 -13.910696 18.834937 1.804448 -11.680503 40.625774 -41.953405 -26.677937 -144.469915 -45.367090 173.684420 -6.612122 0.188828 -54.848506 0.931009 -7.466849 -7.316210 -16.499110 -36.301890 -2.737257 135.763711 -54.530175 -162.277814 -17.251007 -4.324822 34.950206 11.814569 -23.509261 -6.929500 3.130481 78.645082 6.812327 4.177146 4.667649 1.552673 -0.040700 -8.639122 0.365738 -13.741596 -26.326121 -8.100666 38.129562 72.997684 28.715667 -23.072926 1.869960 -13.721678 -0.363472 -0.487739 -0.177807
-30.707540 57.962845 94.020464 175.209690 -50.444234 7.934381 -7.919517 24.319062 0.874528 -1.259932 3.971579 0.293715 -2.004158 6.345991 0.406573 -6.406512 20.191355 0.536835 4.624513 19.904210 -6.885826 10.440338 2.037267 -13.914868 18.842714 1.811073 -11.683834 40.618563 -41.945022 -26.689871 -144.473159 -45.356477 173.684142 -6.615168 0.189236 -54.849789 0.931406 -7.456993 -7.321966 -16.505318 -36.306809 -2.729846 135.768443 -54.530560 -162.283667 -17.252229 -4.330755 34.953348 11.811877 -23.512587 -6.927407 3.111725 78.643932 6.800432 4.165711 4.669024 1.555280 -0.023232 -8.640850 0.360253 -13.729507 -26.327454 -8.112205 38.166790 72.989187 28.768791 -23.064116 1.863077 -13.715255 -0.371474 -0.482622 -0.176936
-30.710603 57.963012 94.019666 175.223560 -50.436816 7.921344 -7.923342 24.314969 0.869258 -1.261282 3.971820 0.293996 -2.004045 6.344214 0.411428 -6.407787 20.191305 0.536058 4.622135 19.908659 -6.892957 10.446617 2.043387 -13.919273 18.841512 1.813419 -11.686764 40.617429 -41.938776 -26.694724 -144.476885 -45.343352 173.685657 -6.616759 0.189214 -54.850349 0.920473 -7.444967 -7.335325 -16.510903 -36.310693 -2.709351 135.776067 -54.528212 -162.288855 -17.257010 -4.331060 34.948472 11.805481 -23.520156 -6.930608 3.133688 78.642493 6.823055 4.177899 4.672338 1.556988 -0.033677 -8.644667 0.360258 -13.688385 -26.331761 -8.141102 38.176663 72.982198 28.823694 -23.048441 1.861897 -13.703720 -0.381011 -0.481325 -0.184119
-30.713312 57.963136 94.018856 175.238663 -50.429063 7.904771 -7.924043 24.311685 0.868097 -1.264298 3.970798 0.293458 -1.999211 6.347345 0.399822 -6.404929 20.189101 0.548031 4.621188 19.913627 -6.904557 10.451100 2.051033 -13.924499 18.840280 1.825200 -11.696741 40.610634 -41.955428 -26.692883 -144.477392 -45.347005 173.686420 -6.613694 0.192222 -54.851673 0.914959 -7.440750 -7.334733 -16.524701 -36.305780 -2.706941 135.809206 -54.532758 -162.310527 -17.252730 -4.334496 34.951524 11.796746 -23.528007 -6.929168 3.142162 78.640909 6.833513 4.179949 4.673360 1.556544 -0.037319 -8.645934 0.360307 -13.681066 -26.338674 -8.147257 38.197011 72.977685 28.856879 -23.035659 1.862002 -13.698716 -0.393009 -0.477562 -0.183839
-30.720787 57.964848 94.017170 175.239105 -50.429045 7.928122 -7.929027 24.315076 0.835525 -1.261189 3.971311 0.287678 -2.000443 6.346533 0.405699 -6.407090 20.184683 0.545209 4.624630 19.918209 -6.907059 10.453587 2.045952 -13.915638 18.841958 1.831695 -11.696104 40.606971 -41.962237 -26.696101 -144.468019 -45.351855 173.675939 -6.614155 0.200484 -54.852852 0.910914 -7.435678 -7.333171 -16.524530 -36.300824 -2.707759 135.807849 -54.526203 -162.293664 -17.256613 -4.336843 34.934389 11.805931 -23.523062 -6.959417 3.171261 78.646400 6.861265 4.177068 4.668533 1.556296 -0.037560 -8.647004 0.361595 -13.663761 -26.344641 -8.178310 38.247763 72.971073 28.906680 -23.065051 1.832838 -13.706547 -0.356196 -0.458740 -0.168180
